<?xml version="1.0" standalone="no"?>
<!DOCTYPE svg PUBLIC "-//W3C//DTD SVG 20010904//EN"
 "http://www.w3.org/TR/2001/REC-SVG-20010904/DTD/svg10.dtd">
<svg version="1.0" xmlns="http://www.w3.org/2000/svg"
 width="920.000000pt" height="920.000000pt" viewBox="0 0 920.000000 920.000000"
 preserveAspectRatio="xMidYMid meet">
<metadata>
Created by potrace 1.11, written by Peter Selinger 2001-2013
</metadata>
<g transform="translate(0.000000,920.000000) scale(0.100000,-0.100000)"
fill="#000000" stroke="none">
<path d="M5456 8413 c-2 -2 -36 -5 -77 -8 -88 -5 -162 -13 -206 -20 -18 -3
-52 -8 -75 -10 -24 -3 -54 -7 -68 -10 -14 -3 -38 -8 -55 -11 -16 -3 -72 -14
-124 -25 -51 -11 -102 -22 -112 -24 -11 -2 -24 -7 -29 -10 -5 -3 -18 -8 -27
-10 -127 -24 -558 -180 -664 -240 -14 -8 -29 -12 -33 -8 -3 3 -6 1 -6 -5 0 -7
-6 -12 -12 -12 -18 0 -312 -150 -316 -161 -2 -5 -9 -9 -16 -9 -7 0 -41 -18
-75 -40 -34 -22 -64 -40 -68 -40 -18 0 -430 -290 -528 -372 -11 -9 -54 -44
-95 -78 -255 -212 -605 -555 -871 -855 -24 -27 -48 -55 -54 -61 -9 -10 -85
-97 -142 -163 -13 -14 -26 -30 -30 -36 -5 -5 -31 -37 -58 -70 -28 -33 -54 -66
-60 -73 -5 -7 -17 -21 -25 -30 -9 -9 -33 -39 -55 -67 -22 -27 -44 -56 -50 -62
-5 -7 -19 -24 -30 -39 -11 -14 -25 -31 -30 -37 -6 -7 -46 -59 -90 -117 -43
-58 -82 -107 -85 -110 -3 -3 -21 -27 -40 -55 -19 -27 -38 -54 -43 -60 -4 -5
-40 -55 -79 -110 -39 -55 -74 -102 -77 -105 -3 -3 -10 -13 -16 -22 -5 -9 -58
-88 -116 -175 -96 -142 -164 -247 -194 -295 -142 -235 -209 -351 -212 -367 -1
-8 -6 -17 -11 -20 -18 -12 -245 -473 -257 -521 0 -3 -7 -16 -15 -30 -7 -14
-12 -25 -11 -25 2 0 -2 -10 -29 -80 -6 -16 -13 -37 -15 -45 -2 -8 -20 -60 -39
-115 -19 -55 -40 -120 -46 -145 -13 -56 -18 -74 -20 -80 -1 -3 -2 -9 -1 -13 1
-4 -3 -16 -8 -25 -5 -9 -11 -35 -14 -57 -4 -22 -11 -65 -17 -95 -30 -155 -32
-404 -5 -570 7 -40 42 -177 52 -200 3 -8 7 -17 8 -20 1 -3 7 -18 13 -33 7 -16
12 -30 12 -32 0 -2 5 -16 12 -32 6 -15 12 -30 13 -33 5 -21 66 -128 108 -190
84 -125 223 -274 337 -361 18 -13 41 -32 51 -42 11 -9 23 -17 27 -17 5 0 17
-8 28 -17 34 -30 83 -63 94 -63 5 0 10 -4 10 -10 0 -5 4 -10 10 -10 5 0 34
-16 65 -35 59 -38 318 -169 375 -191 19 -7 73 -29 120 -49 47 -19 92 -37 100
-39 8 -2 29 -9 45 -15 17 -7 35 -14 40 -15 6 -1 16 -5 22 -9 7 -5 13 -6 13 -2
0 3 14 -2 31 -11 17 -8 40 -17 50 -19 11 -2 59 -16 107 -31 48 -16 92 -29 97
-30 6 -1 55 -14 110 -29 55 -15 111 -29 125 -31 14 -3 41 -9 60 -14 49 -13
269 -60 303 -65 15 -2 54 -9 85 -16 31 -6 69 -12 85 -13 15 0 27 -3 27 -6 0
-3 10 -5 23 -6 22 -1 95 -11 132 -18 11 -2 45 -7 75 -11 30 -3 66 -8 80 -10
51 -8 106 -14 160 -20 30 -3 73 -8 95 -10 22 -3 72 -8 110 -10 39 -3 97 -7
130 -11 63 -6 112 -9 315 -20 209 -12 1065 -7 1065 6 0 0 41 3 90 5 50 2 115
7 145 11 30 3 78 7 105 10 28 2 93 9 145 16 52 6 107 12 123 12 15 1 27 5 27
9 0 5 4 6 9 3 7 -5 74 4 146 18 11 2 40 7 65 10 50 7 84 13 88 16 1 2 10 3 20
4 9 1 42 8 72 14 30 7 66 14 80 17 34 6 147 33 190 45 49 14 113 29 125 31 6
0 16 5 23 11 6 6 12 8 12 5 0 -4 19 1 43 9 23 9 49 17 57 19 33 7 252 86 356
128 181 74 336 151 529 261 11 6 39 24 62 39 24 15 47 27 53 27 5 0 10 5 10
10 0 6 7 10 15 10 8 0 15 5 15 10 0 6 7 10 15 10 8 0 15 5 15 10 0 6 7 10 15
10 8 0 15 4 15 9 0 5 9 13 20 16 11 3 26 12 32 18 7 7 54 41 103 76 90 64 102
73 141 109 11 10 29 25 40 33 122 86 461 428 574 578 14 18 32 40 40 49 8 8
22 25 30 38 8 12 40 57 70 101 77 109 170 258 170 272 0 6 3 11 8 11 4 0 30
44 57 98 28 53 54 100 58 103 5 3 8 9 8 12 0 4 18 46 40 94 109 235 185 466
233 703 24 117 26 132 31 175 3 22 7 51 10 65 12 58 20 229 20 425 0 249 -9
378 -39 545 -3 14 -7 43 -11 65 -3 22 -7 47 -10 55 -2 8 -6 26 -9 40 -3 14 -7
36 -10 50 -3 14 -9 40 -12 58 -3 18 -10 35 -15 38 -5 3 -7 9 -5 13 3 4 -4 37
-14 72 -11 35 -22 73 -24 84 -6 30 -70 209 -105 295 -17 41 -31 81 -31 88 0 6
-4 12 -10 12 -5 0 -10 7 -10 15 0 14 -137 294 -149 305 -3 3 -15 23 -27 45
-52 100 -187 318 -262 425 -53 75 -184 253 -192 260 -3 3 -21 25 -41 50 -91
112 -157 185 -284 314 -115 116 -198 193 -312 286 -43 36 -176 136 -194 146
-10 6 -27 17 -36 26 -39 32 -216 139 -323 195 -25 13 -52 28 -60 33 -44 27
-240 109 -390 165 -96 35 -305 93 -365 101 -11 1 -21 3 -22 4 -4 4 -89 19
-133 25 -8 1 -40 5 -70 10 -127 19 -562 39 -574 28z"/>
</g>
</svg>
